<?xml version="1.0" standalone="no"?>
<!DOCTYPE svg PUBLIC "-//W3C//DTD SVG 20010904//EN"
 "http://www.w3.org/TR/2001/REC-SVG-20010904/DTD/svg10.dtd">
<svg version="1.0" xmlns="http://www.w3.org/2000/svg"
 width="54.000000pt" height="54.000000pt" viewBox="0 0 54.000000 54.000000"
 preserveAspectRatio="xMidYMid meet">

<g transform="translate(0.000000,54.000000) scale(0.100000,-0.100000)"
fill="#000000" stroke="none">
<path d="M152 397 l-132 -132 133 -133 132 -132 133 133 132 132 -133 133
-132 132 -133 -133z m51 -49 c-111 -111 -118 -117 -135 -101 -18 16 -14 22 99
135 111 111 118 117 135 101 18 -16 14 -22 -99 -135z m50 -50 c-111 -111 -118
-117 -135 -101 -18 16 -14 22 99 135 111 111 118 117 135 101 18 -16 14 -22
-99 -135z m158 86 c11 -13 -4 -32 -106 -134 -113 -113 -120 -119 -137 -103
-18 16 -14 22 99 135 65 65 121 118 124 118 4 0 12 -7 20 -16z m50 -50 c11
-13 -4 -32 -106 -134 -113 -113 -120 -119 -137 -103 -18 16 -14 22 99 135 65
65 121 118 124 118 4 0 12 -7 20 -16z m-58 -186 c-111 -111 -118 -117 -135
-101 -18 16 -14 22 99 135 111 111 118 117 135 101 18 -16 14 -22 -99 -135z"/>
</g>
</svg>
